<svg width="132" height="40" viewBox="0 0 132 40" fill="none" xmlns="http://www.w3.org/2000/svg">
<path d="M49.8569 9.70412V12.4627H44.3634V30.3192H40.9782V12.4627H35.4551V9.70412H49.8569Z" fill="#007CBF"/>
<path d="M54.4136 11.8101C53.7999 11.8101 53.2852 11.6025 52.8695 11.1872C52.4537 10.7719 52.2459 10.2578 52.2459 9.64479C52.2459 9.03178 52.4537 8.51764 52.8695 8.10237C53.2852 7.6871 53.7999 7.47947 54.4136 7.47947C55.0075 7.47947 55.5123 7.6871 55.928 8.10237C56.3437 8.51764 56.5516 9.03178 56.5516 9.64479C56.5516 10.2578 56.3437 10.7719 55.928 11.1872C55.5123 11.6025 55.0075 11.8101 54.4136 11.8101ZM56.0765 13.9754V30.3192H52.6913V13.9754H56.0765Z" fill="#007CBF"/>
<path d="M63.3121 16.3781C63.8862 15.6266 64.6682 14.9938 65.658 14.4797C66.6478 13.9656 67.7663 13.7085 69.0135 13.7085C70.4388 13.7085 71.7355 14.0644 72.9034 14.7763C74.0912 15.4684 75.0216 16.4473 75.6947 17.7129C76.3678 18.9784 76.7043 20.4319 76.7043 22.0732C76.7043 23.7145 76.3678 25.1877 75.6947 26.4928C75.0216 27.7782 74.0912 28.7867 72.9034 29.5183C71.7355 30.2302 70.4388 30.5862 69.0135 30.5862C67.7663 30.5862 66.6577 30.339 65.6877 29.8446C64.7177 29.3305 63.9258 28.6977 63.3121 27.9462V38.0906H59.927V13.9754H63.3121V16.3781ZM73.2598 22.0732C73.2598 20.946 73.0222 19.9771 72.5471 19.1663C72.0918 18.3358 71.4781 17.7129 70.7061 17.2976C69.9538 16.8625 69.1421 16.645 68.2711 16.645C67.4199 16.645 66.6082 16.8625 65.8362 17.2976C65.0839 17.7326 64.4702 18.3654 63.9951 19.196C63.5398 20.0265 63.3121 21.0053 63.3121 22.1325C63.3121 23.2596 63.5398 24.2484 63.9951 25.0987C64.4702 25.9292 65.0839 26.562 65.8362 26.9971C66.6082 27.4321 67.4199 27.6496 68.2711 27.6496C69.1421 27.6496 69.9538 27.4321 70.7061 26.9971C71.4781 26.5422 72.0918 25.8897 72.5471 25.0394C73.0222 24.1891 73.2598 23.2003 73.2598 22.0732Z" fill="#007CBF"/>
<path d="M82.8432 27.5903H89.8214V30.3192H79.458V9.70412H82.8432V27.5903Z" fill="#007CBF"/>
<path d="M93.7807 11.8101C93.167 11.8101 92.6523 11.6025 92.2366 11.1872C91.8209 10.7719 91.613 10.2578 91.613 9.64479C91.613 9.03178 91.8209 8.51764 92.2366 8.10237C92.6523 7.6871 93.167 7.47947 93.7807 7.47947C94.3746 7.47947 94.8794 7.6871 95.2951 8.10237C95.7108 8.51764 95.9187 9.03178 95.9187 9.64479C95.9187 10.2578 95.7108 10.7719 95.2951 11.1872C94.8794 11.6025 94.3746 11.8101 93.7807 11.8101ZM95.4436 13.9754V30.3192H92.0584V13.9754H95.4436Z" fill="#007CBF"/>
<path d="M107.549 13.7085C108.836 13.7085 109.984 13.9754 110.994 14.5094C112.023 15.0433 112.825 15.8343 113.399 16.8823C113.973 17.9304 114.26 19.196 114.26 20.6791V30.3192H110.905V21.1833C110.905 19.72 110.538 18.6027 109.806 17.8315C109.073 17.0405 108.074 16.645 106.807 16.645C105.54 16.645 104.53 17.0405 103.778 17.8315C103.046 18.6027 102.679 19.72 102.679 21.1833V30.3192H99.2941V13.9754H102.679V15.8441C103.234 15.1718 103.936 14.6478 104.788 14.2721C105.659 13.8963 106.579 13.7085 107.549 13.7085Z" fill="#007CBF"/>
<path d="M124.458 22.1621L132 30.3192H127.427L121.369 23.2893V30.3192H117.984V8.36933H121.369V21.124L127.308 13.9754H132L124.458 22.1621Z" fill="#007CBF"/>
<path d="M2.17433 2.17195C-0.724771 5.06788 -0.724772 9.76311 2.17432 12.659L8.25848 18.7365L10.3582 16.6391L4.27404 10.5616C2.53458 8.82406 2.53458 6.00692 4.27404 4.26937C6.0135 2.53181 8.83371 2.53181 10.5732 4.26937L23.1714 16.8539C24.9109 18.5914 24.9109 21.4086 23.1714 23.1461C21.432 24.8837 18.6118 24.8837 16.8723 23.1461L14.9586 21.2345L12.8589 23.332L14.7726 25.2436C17.6717 28.1395 22.3721 28.1395 25.2712 25.2436C28.1702 22.3476 28.1703 17.6524 25.2712 14.7565L12.6729 2.17195C9.77379 -0.723983 5.07342 -0.723983 2.17433 2.17195Z" fill="#007CBF"/>
<path d="M9.52332 20L2.17432 27.341C-0.724775 30.2369 -0.724774 34.9321 2.17432 37.8281C5.07342 40.724 9.77378 40.724 12.6729 37.8281L21.0766 29.4335C19.7907 29.5762 18.4813 29.4571 17.2348 29.0763L10.5732 35.7307C8.83371 37.4682 6.01349 37.4682 4.27403 35.7307C2.53458 33.9931 2.53458 31.176 4.27403 29.4384L16.8723 16.8539C17.4899 16.237 18.2437 15.8391 19.0369 15.6603L16.7269 13.3527C16.0215 13.7017 15.3601 14.1696 14.7726 14.7565L11.623 17.9026L11.618 17.8976L9.5183 19.995L9.52332 20Z" fill="#007CBF"/>
</svg>
